<svg version="1.0" xmlns="http://www.w3.org/2000/svg"
     width="512.000000pt" height="512.000000pt" viewBox="0 0 512.000000 512.000000"
     preserveAspectRatio="xMidYMid meet">

    <g transform="translate(0.000000,512.000000) scale(0.100000,-0.100000)"
       fill="#647bd1" stroke="none">
        <path d="M1118 4994 c-742 -757 -1146 -1669 -1115 -2514 27 -706 326 -1369
913 -2020 135 -150 311 -326 319 -319 3 3 4 1123 3 2489 l-3 2483 -117 -119z"/>
        <path d="M1540 2627 c0 -1392 4 -2487 9 -2487 12 0 281 278 382 395 417 484
675 969 788 1480 43 194 55 320 55 565 -1 261 -18 408 -74 637 -151 619 -544
1287 -1054 1793 l-106 105 0 -2488z"/>
        <path d="M4495 3739 c-483 -33 -950 -139 -1351 -309 -170 -71 -159 -58 -134
-165 99 -423 99 -906 0 -1330 -11 -48 -19 -89 -17 -91 1 -2 432 426 957 951
l955 955 -145 -1 c-80 -1 -199 -6 -265 -10z"/>
        <path d="M3899 2313 c-996 -997 -1222 -1229 -1249 -1278 -145 -263 -406 -603
-691 -899 l-124 -129 190 6 c474 16 930 111 1315 274 1004 428 1614 1353 1755
2663 14 136 33 580 24 580 -2 0 -551 -548 -1220 -1217z"/>
    </g>
</svg>
