<?xml version="1.0" encoding="utf-8"?>
<!-- Generator: Adobe Illustrator 27.9.1, SVG Export Plug-In . SVG Version: 6.00 Build 0)  -->
<svg version="1.1" id="Layer_1" xmlns="http://www.w3.org/2000/svg" xmlns:xlink="http://www.w3.org/1999/xlink" x="0px" y="0px"
	 viewBox="0 0 190.3 212.1" style="enable-background:new 0 0 190.3 212.1;" xml:space="preserve">
<image style="display:none;overflow:visible;opacity:0.21;enable-background:new    ;" width="549" height="520" xlink:href="../../../../../Users/hi/OneDrive/Desktop/attachment_94613392.png"  transform="matrix(0.525 0 0 0.525 -34.7752 -60.1791)">
</image>
<path style="fill:none;stroke:#7840FF;stroke-width:18;stroke-linejoin:round;stroke-miterlimit:10;" d="M74.5,48
	c2-8.8,5.5-22.2,10.2-31c4.4-8.3,16.4-8.3,20.8,0c12.4,23.7,15.7,49.9,13.4,74C82.8,68.6,48,50.9,21.9,52.2
	c-9.1,0.4-14.6,10.2-10.2,18.2c4.4,8.1,14.8,18.2,23,25.3"/>
<path style="fill:none;stroke:#7840FF;stroke-width:18;stroke-linejoin:round;stroke-miterlimit:10;" d="M134.6,58.2
	c8.5-2.4,23.3-5.2,32.5-4.8c8.6,0.4,14,9.4,10.3,17.2c-9,18.6-37.5,40.3-82.3,64.4c21.5,15.9,47.5,25.7,73.6,25.2
	c8-0.2,13.1-8.5,9.8-15.7c-4-8.8-14.1-20.7-22.9-28.6"/>
<path style="fill:none;stroke:#7840FF;stroke-width:18;stroke-linejoin:round;stroke-miterlimit:10;" d="M54.2,153.3
	c-13.8,5.1-32.8,8.4-39.7,5c-3.6-1.7-5.4-5.8-4.6-9.7c2.8-12.5,19.3-30,57.6-55.7c1.2-0.8,2.8,0.1,2.8,1.5
	c-1.9,47.6,2.5,82.5,14.5,101.2c4.8,7.5,15.6,7.5,20.6,0.1c3.7-5.5,9.2-19.3,11.8-30.1"/>
</svg>
